# xmcd
#
# Track frame offsets:
#	150
#	22542
#	44450
#	66980
#	88205
#	104572
#	130780
#	155282
#	178077
#	201462
#	228292
#
# Disc length: 3227 seconds
#
# Revision: 1
# Processed by: cddbd v1.5PL3 Copyright (c) Steve Scherf et al.
# Submitted via: CDex 1.50Beta5
#
DISCID=910c990b
DTITLE=吉田栄作 - 僕は何かを失いそうだ
DYEAR=1991
DGENRE=Pop
TTITLE0=V
TTITLE1=MESSAGE
TTITLE2=BICYCLE
TTITLE3=BLUE
TTITLE4=地球の果てまで追いかけて
TTITLE5=HARD LUCK DAY
TTITLE6=MAY
TTITLE7=52億分の俺
TTITLE8=DESOLATED RIVER
TTITLE9=僕は何かを失いそうだ
TTITLE10=美しい花
EXTD=
EXTT0=
EXTT1=
EXTT2=
EXTT3=
EXTT4=
EXTT5=
EXTT6=
EXTT7=
EXTT8=
EXTT9=
EXTT10=
PLAYORDER=
